<svg width="100" height="100" viewBox="0 0 100 100" fill="none" xmlns="http://www.w3.org/2000/svg">
  <rect width="100" height="100" rx="12" fill="#96588A"/>
  <path d="M20 35C20 32.2386 22.2386 30 25 30H75C77.7614 30 80 32.2386 80 35V55C80 57.7614 77.7614 60 75 60H25C22.2386 60 20 57.7614 20 55V35Z" fill="white" fill-opacity="0.15"/>
  <path d="M28 38L32 52L36 42L40 52L44 38" stroke="white" stroke-width="2.5" stroke-linecap="round" stroke-linejoin="round"/>
  <circle cx="54" cy="45" r="7" stroke="white" stroke-width="2.5"/>
  <circle cx="70" cy="45" r="7" stroke="white" stroke-width="2.5"/>
  <path d="M50 70C50 68 52 66 55 66C58 66 60 68 60 70C60 72 58 74 55 74" stroke="white" stroke-width="2" stroke-linecap="round"/>
</svg>